<?xml version="1.0" encoding="utf-8"?>
<!-- Generator: Adobe Illustrator 28.0.0, SVG Export Plug-In . SVG Version: 6.00 Build 0)  -->
<svg version="1.1" id="Layer_1" xmlns="http://www.w3.org/2000/svg" xmlns:xlink="http://www.w3.org/1999/xlink" x="0px" y="0px"
	 viewBox="0 0 786.65 224.12" style="enable-background:new 0 0 786.65 224.12;" xml:space="preserve">
<style type="text/css">
	.st0{fill:#38A3A6;}
	.st1{font-family:'Copperplate-Bold';}
	.st2{font-size:134.5546px;}
	.st3{fill:#22587A;}
</style>
<g>
	<text transform="matrix(1 0 0 1 5.3291 207.4464)" class="st0 st1 st2">Fund</text>
</g>
<g>
	<path class="st3" d="M327.32,153.27c33.71,54.7,82.37,68.59,118.72,51.67c3.84-1.79,7.39-3.93,10.66-6.38
		c-1.76,1.1-3.59,2.1-5.53,2.97c-34.52,15.47-83.44-13.2-109.25-64.04c-25.19-49.61-19.07-101.97,13.32-118.85
		c-0.02,0.01-0.05,0.01-0.07,0.02C316.34,31.2,287.14,88.09,327.32,153.27z"/>
	<path class="st0" d="M468.37,82.11C441.25,30.83,389.51,2.06,352.8,17.84c-0.89,0.38-1.74,0.8-2.59,1.23
		c-34.45,17.2-41.22,70.16-14.76,120.2c27.12,51.28,78.86,80.05,115.56,64.27c2.06-0.88,4.01-1.91,5.88-3.03
		C488.47,181.66,493.97,130.52,468.37,82.11z M415.95,163.8l-10.69-1.16c-1.14-0.18-2-1.02-2.11-2.06l-8.12-75.91
		c-0.09-0.87-0.7-1.62-1.58-1.97l-13.09-5.16l14.24-14.36l21.84,32.42c-4.45,1.59-6.58,4.36-7.4,5.75c-0.3,0.5-0.4,1.06-0.34,1.62
		L415.95,163.8z"/>
</g>
<path class="st3" d="M434.83,167.55l-8.84-74.99l12.24,2.6l-31.44-45.58l-12.19,13.6l21.84,32.42c0,0-8.23,3.23-7.73,7.37
	c0.49,4.13,7.24,60.83,7.24,60.83L434.83,167.55z"/>
<g>
	<text transform="matrix(1 0 0 1 475.0348 167.5497)" class="st3 st1 st2">Rise</text>
</g>
</svg>
