<?xml version="1.0" encoding="utf-8"?>
<!-- Generator: Adobe Illustrator 28.0.0, SVG Export Plug-In . SVG Version: 6.00 Build 0)  -->
<svg version="1.1" id="Layer_1" xmlns="http://www.w3.org/2000/svg" xmlns:xlink="http://www.w3.org/1999/xlink" x="0px" y="0px"
	 viewBox="0 0 786.7 224.1" style="enable-background:new 0 0 786.7 224.1;" xml:space="preserve">
<style type="text/css">
	.st0{fill:#38A3A6;}
	.st1{fill:#22587A;}
</style>
<g>
	<path class="st0" d="M286.3,203.4c0,1-0.3,1.6-1,1.9c-0.7,0.3-1.5,0.5-2.5,0.5v1.6h40.4c5,0,9.3-0.8,12.8-2.4
		c3.5-1.6,6.4-3.8,8.7-6.5c2.3-2.7,3.9-5.8,5-9.4c1-3.6,1.5-7.4,1.5-11.3c0-3.9-0.5-7.7-1.5-11.3c-1-3.6-2.7-6.7-5-9.4
		c-2.3-2.7-5.2-4.8-8.7-6.5c-3.5-1.6-7.8-2.4-12.8-2.4h-40.4v1.6c1,0.1,1.8,0.3,2.5,0.5c0.7,0.3,1,0.9,1,1.9V203.4z M304.3,194.5
		v-33.4h9.7c7,0,12,1.2,15.1,3.7c3,2.5,4.6,6.8,4.6,13c0,6.2-1.5,10.5-4.6,13c-3,2.5-8.1,3.7-15.1,3.7H304.3z M262.7,152.3
		c0-1,0.4-1.6,1.1-1.9c0.7-0.3,1.6-0.4,2.7-0.5v-1.6h-23.7v1.6c1.1,0.1,2,0.3,2.7,0.5c0.7,0.3,1.1,0.9,1.1,1.9v26.5
		c-2.9-3-5.7-6.1-8.6-9.1c-2.9-3-5.5-5.8-7.8-8.3c-2.3-2.5-4.2-4.6-5.7-6.3c-1.5-1.7-2.2-2.6-2.2-2.8c0-1,0.3-1.6,0.9-1.9
		c0.6-0.3,1.3-0.4,1.9-0.5v-1.6h-32v1.6c1,0.1,1.8,0.3,2.6,0.5c0.7,0.3,1.1,0.9,1.1,1.9v51.1c0,1-0.3,1.6-1,1.9
		c-0.7,0.3-1.5,0.5-2.4,0.5v1.6h23v-1.6c-1-0.1-1.8-0.3-2.5-0.5c-0.7-0.3-1-0.9-1-1.9v-35.3l0.3-0.3c3.8,4.5,7.6,8.7,11.4,12.7
		c3.9,4,7.3,7.6,10.4,10.8s5.6,5.9,7.6,8.1c2,2.2,3,3.7,3,4.5c0,0.8-0.5,1.3-1.4,1.5c-0.9,0.2-1.8,0.3-2.5,0.3v1.6h24.9v-1.6
		c-1.1-0.1-2-0.3-2.7-0.5c-0.7-0.3-1.1-0.9-1.1-1.9V152.3z M108.4,181.9c0,3.6,0.5,7,1.6,10.2c1.1,3.2,2.8,6,5.2,8.3
		c2.4,2.4,5.7,4.2,9.7,5.5c4,1.3,9,2,14.9,2s10.9-0.6,14.9-2c4-1.3,7.3-3.1,9.7-5.5c2.4-2.4,4.2-5.2,5.2-8.3
		c1.1-3.2,1.6-6.6,1.6-10.2v-29.6c0-1,0.4-1.6,1.1-1.9c0.8-0.3,1.7-0.4,2.8-0.5v-1.6h-24.2v1.6c0.4,0.1,0.9,0.3,1.5,0.5
		c0.5,0.3,0.8,0.9,0.8,1.9V185c0,3.4-1.2,5.9-3.7,7.3c-2.5,1.5-5.7,2.2-9.8,2.2s-7.3-0.7-9.8-2.2c-2.5-1.5-3.7-3.9-3.7-7.3v-32.7
		c0-1,0.3-1.6,0.8-1.9c0.5-0.3,1-0.4,1.5-0.5v-1.6h-24.2v1.6c1.1,0.1,2,0.3,2.8,0.5c0.8,0.3,1.1,0.9,1.1,1.9V181.9z M89.2,156.3
		v-23.4h-1.6c-0.2,1.5-0.5,2.5-0.8,3c-0.4,0.5-0.9,0.7-1.6,0.7H16.2v1.6c1.7,0.2,2.8,0.5,3.2,0.9c0.4,0.4,0.6,0.9,0.6,1.5v62.7
		c0,0.6-0.2,1.1-0.6,1.5s-1.5,0.7-3.2,0.9v1.6h28.3v-1.6c-1.7-0.2-2.8-0.5-3.2-0.9c-0.4-0.4-0.6-0.9-0.6-1.5v-22.5h29.9
		c0.7,0,1.3,0.2,1.6,0.7c0.4,0.5,0.6,1.4,0.8,3h1.6V162H73c-0.2,1.3-0.5,2.1-0.8,2.5c-0.4,0.4-0.9,0.6-1.6,0.6H40.7v-12h44.4
		c0.7,0,1.3,0.2,1.6,0.7c0.4,0.5,0.6,1.3,0.8,2.6H89.2z"/>
	<path class="st1" d="M721.8,155.7v-13.3h25.3c0.5,0,1.1,0.2,1.6,0.6c0.5,0.4,0.8,1.2,0.8,2.5h1.6V128h-1.6c0,1.3-0.3,2.1-0.8,2.5
		c-0.5,0.4-1.1,0.6-1.6,0.6h-25.3v-10.9h39.3c0.5,0,1.1,0.2,1.6,0.6s0.8,1.3,0.8,2.6h1.6v-18h-1.6c0,1.3-0.3,2.1-0.8,2.4
		c-0.5,0.4-1.1,0.5-1.6,0.5H700v1.6c1,0.1,1.9,0.3,2.6,0.5c0.8,0.3,1.1,0.9,1.1,1.9v51.1c0,1-0.4,1.6-1.1,1.9
		c-0.8,0.3-1.6,0.5-2.6,0.5v1.6h60c1.1,0,1.9,0.1,2.4,0.3c0.5,0.2,1,0.9,1.4,2.2h1.3v-17.6h-1.6c-0.5,2.2-1.7,3.4-3.5,3.4H721.8z
		 M627.6,147l-5.5,18l1.5,0.4c0.4-0.4,0.9-0.9,1.4-1.3c0.5-0.4,1.1-0.6,1.7-0.6c0.3,0,1.3,0.2,3.2,0.7c1.8,0.5,4.1,1,6.9,1.6
		c2.8,0.6,5.8,1.1,9.1,1.5c3.3,0.4,6.6,0.6,9.8,0.6c5.1,0,9.5-0.5,13.3-1.4c3.7-0.9,6.8-2.3,9.2-4.1c2.4-1.8,4.2-3.9,5.4-6.3
		c1.2-2.4,1.7-4.9,1.7-7.5c0-3.9-1.1-7-3.2-9.2c-2.2-2.2-4.9-3.9-8.1-5c-3.3-1.2-6.8-2-10.6-2.5c-3.8-0.5-7.4-0.9-10.6-1.3
		c-3.3-0.4-6-0.9-8.1-1.6s-3.2-1.8-3.2-3.4c0-1.5,0.6-2.7,2-3.4c1.3-0.8,2.8-1.3,4.5-1.7c1.7-0.4,3.4-0.6,5.1-0.7
		c1.7,0,3-0.1,3.8-0.1c2.3,0,4.6,0.2,6.8,0.6c2.2,0.4,4.2,0.9,5.9,1.4c1.7,0.5,3.2,1.1,4.2,1.6c1.1,0.5,1.6,1,1.6,1.3
		c0,0.3,0,0.5-0.1,0.8c0,0.3-0.1,0.5-0.1,0.7l1.7,0.8l8.1-17l-1.5-0.5c-0.4,0.3-0.8,0.6-1.2,1c-0.4,0.4-1,0.6-1.7,0.6
		c-0.7,0-1.9-0.2-3.6-0.5c-1.7-0.4-3.7-0.8-6.1-1.2c-2.4-0.4-5-0.9-7.9-1.2c-2.9-0.4-6-0.5-9.2-0.5c-5.5,0-10.1,0.7-13.9,2
		c-3.8,1.3-6.9,2.9-9.2,4.9c-2.3,2-4,4.2-5.1,6.5c-1.1,2.4-1.6,4.6-1.6,6.7c0,3.8,1.1,6.7,3.2,8.8c2.2,2.1,4.9,3.7,8.1,4.8
		c3.3,1.1,6.8,1.9,10.6,2.4c3.8,0.5,7.4,0.9,10.6,1.3c3.3,0.4,6,1,8.1,1.8c2.2,0.8,3.2,2,3.2,3.8c0,1.3-0.5,2.4-1.4,3.2
		c-0.9,0.8-2.1,1.3-3.4,1.8c-1.3,0.4-2.7,0.7-4.1,0.7c-1.4,0.1-2.5,0.1-3.3,0.1c-2.7,0-5.6-0.2-8.7-0.6s-6-0.9-8.6-1.6
		c-2.6-0.7-4.8-1.4-6.5-2.2c-1.7-0.8-2.6-1.7-2.6-2.6c0-0.4,0-0.6,0.1-0.9c0-0.2,0.1-0.4,0.1-0.6L627.6,147z M608,108.3h-26.6v1.6
		c1.3,0.1,2.4,0.3,3.2,0.5c0.8,0.3,1.1,0.9,1.1,1.9v51.1c0,1-0.4,1.6-1.1,1.9c-0.8,0.3-1.8,0.5-3.2,0.5v1.6H608v-1.6
		c-1.3-0.1-2.4-0.3-3.2-0.5c-0.8-0.3-1.1-0.9-1.1-1.9v-51.1c0-1,0.4-1.6,1.1-1.9c0.8-0.3,1.8-0.4,3.2-0.5V108.3z M509.9,140.9h13.2
		c0.3,0.5,0.9,1.3,1.7,2.6c0.9,1.3,2,2.7,3.2,4.3c1.2,1.6,2.5,3.3,3.8,5c1.3,1.7,2.5,3.4,3.6,4.9c1.1,1.5,2,2.8,2.7,3.9
		c0.7,1.1,1.1,1.7,1.1,1.9c0,1.5-1,2.3-3,2.4v1.6h28v-1.6c-1.5,0-2.8-0.8-3.9-2.4l-15.9-22.3c5.6-1.5,10.2-4,13.8-7.5
		c3.6-3.5,5.4-8.3,5.4-14.5c0-7.6-2.2-13.3-6.7-16.9c-4.5-3.6-11.7-5.4-21.7-5.4h-49.2v1.6c1.7,0.2,2.8,0.5,3.2,0.9
		c0.4,0.4,0.6,0.9,0.6,1.5v62.7c0,0.6-0.2,1.1-0.6,1.5s-1.5,0.7-3.2,0.9v1.6h27.7v-1.6c-1.7-0.2-2.8-0.5-3.2-0.9s-0.6-0.9-0.6-1.5
		V140.9z M509.9,126.6v-14.8h22.6c3.9,0,6.7,0.7,8.1,2.2c1.5,1.5,2.2,3.2,2.2,5.2c0,2-0.7,3.7-2.2,5.2c-1.5,1.5-4.2,2.2-8.1,2.2
		H509.9z"/>
</g>
<g>
	<path class="st1" d="M327.3,153.3C361,208,409.7,221.9,446,204.9c3.8-1.8,7.4-3.9,10.7-6.4c-1.8,1.1-3.6,2.1-5.5,3
		c-34.5,15.5-83.4-13.2-109.2-64c-25.2-49.6-19.1-102,13.3-118.8c0,0,0,0-0.1,0C316.3,31.2,287.1,88.1,327.3,153.3z"/>
	<path class="st0" d="M468.4,82.1c-27.1-51.3-78.9-80.1-115.6-64.3c-0.9,0.4-1.7,0.8-2.6,1.2c-34.5,17.2-41.2,70.2-14.8,120.2
		c27.1,51.3,78.9,80.1,115.6,64.3c2.1-0.9,4-1.9,5.9-3C488.5,181.7,494,130.5,468.4,82.1z M416,163.8l-10.7-1.2
		c-1.1-0.2-2-1-2.1-2.1L395,84.7c-0.1-0.9-0.7-1.6-1.6-2l-13.1-5.2l14.2-14.4l21.8,32.4c-4.5,1.6-6.6,4.4-7.4,5.8
		c-0.3,0.5-0.4,1.1-0.3,1.6L416,163.8z"/>
</g>
<path class="st1" d="M434.8,167.6l-8.8-75l12.2,2.6l-31.4-45.6l-12.2,13.6l21.8,32.4c0,0-8.2,3.2-7.7,7.4c0.5,4.1,7.2,60.8,7.2,60.8
	L434.8,167.6z"/>
</svg>
